<svg xmlns="http://www.w3.org/2000/svg" width="60.002" height="185.001" viewBox="0 0 60.002 185.001">
  <g id="sticky_plan" data-name="sticky plan" transform="translate(-5892.998 1385.956)">
    <path id="Subtraction_42" data-name="Subtraction 42" d="M-3010.871,507.406h-60V339.91l11.227-17.505h48.775v185Zm-39.392-170.133a2.755,2.755,0,0,0-1.958.809c-.928.926-1.209,1.21-1.295,1.3l-.006.007c-.007,0-.085.083-.119.121a9.936,9.936,0,0,0-2.734,5.089v3.932a9.968,9.968,0,0,0,2.734,5.095l10.691,10.547a9.982,9.982,0,0,0,5.1,2.737l3.909,0a9.959,9.959,0,0,0,5.087-2.723c.023-.016,1.087-1,1.412-1.3l.012-.011a2.764,2.764,0,0,0,0-3.9l-3.9-4.037c-.007-.006-.01-.008-.013-.008a2.747,2.747,0,0,0-1.956-.81,2.75,2.75,0,0,0-1.958.81l-1.778,1.779a2.086,2.086,0,0,1-1.481.616,2.079,2.079,0,0,1-1.481-.616l0,0-6.182-6.039a2.079,2.079,0,0,1-.615-1.482,2.082,2.082,0,0,1,.615-1.484l1.779-1.777a2.787,2.787,0,0,0,0-3.919l-3.913-3.911A2.761,2.761,0,0,0-3050.263,337.273Zm9.589,9.616a.865.865,0,0,0-.864.863.865.865,0,0,0,.864.863,2.594,2.594,0,0,1,2.593,2.59.866.866,0,0,0,.864.867.866.866,0,0,0,.863-.867A4.323,4.323,0,0,0-3040.674,346.889Zm.178-3.637a.864.864,0,0,0-.862.863.864.864,0,0,0,.862.863,6.054,6.054,0,0,1,6.047,6.047.869.869,0,0,0,.867.868.867.867,0,0,0,.864-.868A7.785,7.785,0,0,0-3040.5,343.252Zm.084-7.349h0a.856.856,0,0,0-.315.669.865.865,0,0,0,.863.864,12.973,12.973,0,0,1,12.956,12.961.864.864,0,0,0,.863.863.851.851,0,0,0,.67-.32V348a14.639,14.639,0,0,0-12.093-12.093l-2.944,0Zm.548,3.261a.866.866,0,0,0-.863.867.865.865,0,0,0,.863.864,9.512,9.512,0,0,1,9.5,9.5.866.866,0,0,0,.867.863.864.864,0,0,0,.863-.863A11.245,11.245,0,0,0-3039.864,339.164Zm3.978,26.094h-.009a8.074,8.074,0,0,1-5.748-2.395l-10.7-10.546a8.113,8.113,0,0,1-2.377-5.413,8.114,8.114,0,0,1,1.868-5.537l5.2,5.2a3.955,3.955,0,0,0,.171,5.395l6.187,6.041a3.919,3.919,0,0,0,2.788,1.152,3.929,3.929,0,0,0,2.6-.98l5.2,5.2A8.138,8.138,0,0,1-3035.886,365.258Zm6.547-3.135v0l-5.248-5.248.653-.652a.921.921,0,0,1,.652-.272.936.936,0,0,1,.649.267c.008.011.822.853,1.852,1.92l.193.2.3.314.729.756.472.488.059.061.3.307a.924.924,0,0,1,.009,1.291l-.617.569Zm-17.01-16.865v0l-5.217-5.221.652-.649a.923.923,0,0,1,.653-.271.921.921,0,0,1,.653.271l3.913,3.912a.919.919,0,0,1,.27.654.917.917,0,0,1-.27.652l-.653.651Z" transform="translate(8963.871 -1708.36)" fill="#fd0"/>
  </g>
</svg>
