<svg xmlns="http://www.w3.org/2000/svg" width="445.001" height="388.808" viewBox="0 0 445.001 388.808">
  <path id="Subtraction_44" data-name="Subtraction 44" d="M87.251,388.808H-150V0H295l-.027.051c-9.852.011-15.6.023-17.087.037-21.362.2-34.631,6.571-42.559,10.376-9.014,4.327-21.97,14.4-29.292,25.268-3.97,5.894-51.881,79.495-94.716,145.386-44.344,68.21-90.46,139.248-93.525,144.189-11.012,17.752-13.311,32-7.028,43.564C18.886,383.812,35.807,384,49.4,384.146c.74.008,1.438.016,2.14.026.548.008,2.859.012,7.067.012,6.212,0,16.684-.009,31.127-.027l-2.486,4.652Z" transform="translate(150)" fill="#fff"/>
</svg>
